<svg width="326" height="158" viewBox="0 0 326 158" fill="none" xmlns="http://www.w3.org/2000/svg">
<g filter="url(#filter0_d_318_2)">
<path fill-rule="evenodd" clip-rule="evenodd" d="M145.581 3.35648C159.281 1.56966 168.226 1.52615 181.594 3.35648L289.783 17.2998C307.875 20.7309 316.849 30.5688 310.85 48.4384L291.075 105.069C288.066 113.095 282.447 118.093 267.367 122.964C237.733 130.843 209.132 141.503 179.497 149.381C167.87 153.139 156.958 152.596 145.326 149.381L56.2688 122.964C42.7038 118.464 38.5612 114.299 35.2665 105.675L13.6715 48.4384C10.224 30.7532 21.5189 20.9443 45.3218 17.2998L145.581 3.35648Z" fill="#2B2A29"/>
<path fill-rule="evenodd" clip-rule="evenodd" d="M267.367 122.964C237.733 130.843 209.132 141.503 179.497 149.381C167.87 153.139 156.958 152.596 145.326 149.381L56.2688 122.964C42.7038 118.464 38.5612 114.299 35.2665 105.675L13.6715 48.4384C10.224 30.7532 21.5189 20.9443 45.3218 17.2998L145.581 3.35648C159.281 1.56966 168.226 1.52615 181.594 3.35648L289.783 17.2998C307.875 20.7309 316.849 30.5688 310.85 48.4384L291.075 105.069C288.066 113.095 282.447 118.093 267.367 122.964ZM163.712 8.90776C158.521 8.91281 153.217 9.33889 146.776 10.171C146.694 10.1852 146.612 10.1986 146.53 10.21L46.6709 24.0976C46.5657 24.1184 46.4595 24.1372 46.3523 24.1533C35.865 25.759 28.3403 28.5253 24.0507 32.6153C20.5965 35.9087 19.3149 40.5201 20.379 46.5993L41.6188 102.895C41.6641 102.999 41.7072 103.104 41.7479 103.21C42.9937 106.471 44.3168 108.818 46.418 110.611C48.7999 112.643 52.4042 114.383 58.0587 116.282C58.1129 116.296 58.1672 116.311 58.2214 116.327L147.278 142.745L147.277 142.747C152.517 144.188 157.544 145.029 162.495 145.088C167.303 145.146 172.129 144.467 177.128 142.88C177.325 142.809 177.528 142.745 177.735 142.691C192.643 138.727 206.993 134.159 221.344 129.59C236.076 124.9 250.808 120.211 265.5 116.301C272.099 114.153 276.522 112.072 279.49 109.755C281.97 107.819 283.463 105.594 284.52 102.851C284.527 102.832 284.533 102.813 284.54 102.793L304.314 46.1628H304.314C304.786 44.7454 305.143 43.3924 305.388 42.103C306.215 37.7517 305.683 34.3716 304.002 31.8721C302.195 29.184 298.913 27.1107 294.422 25.6063C292.647 25.0119 290.681 24.5122 288.537 24.1046L181.02 10.2479C180.904 10.2383 180.788 10.2256 180.672 10.21C174.256 9.33157 168.961 8.90275 163.712 8.90776H163.712Z" fill="#ADAA9D"/>
<path fill-rule="evenodd" clip-rule="evenodd" d="M306.452 43.1138C307.591 42.58 308.438 41.7676 309.448 41.252C310.57 46.8456 307.38 53.7695 303.716 61.4298L301.008 61.8216C302.749 55.4894 305.826 50.6533 306.452 43.1138Z" fill="#646359"/>
<path fill-rule="evenodd" clip-rule="evenodd" d="M40.2117 28.0313C35.1405 31.9378 29.811 37.2821 33.9546 47.2694L53.3881 104.056C54.6478 107.649 56.9112 110.62 61.7743 111.979L83.5284 120.559L53.9948 112.068C49.1714 110.32 46.0937 107.527 44.3748 103.919L23.3286 47.3885C19.9225 35.426 27.6876 29.1659 40.2117 28.0312V28.0313Z" fill="#646359" stroke="#2B2A29" stroke-width="0.199972" stroke-miterlimit="22.9256"/>
<path fill-rule="evenodd" clip-rule="evenodd" d="M18.59 43.1587C17.4514 42.625 16.604 41.8126 15.5943 41.2969C14.4721 46.8905 17.6623 53.8144 21.3263 61.4747L24.0348 61.8666C22.2935 55.5343 19.2164 50.6982 18.59 43.1587Z" fill="#646359"/>
<path fill-rule="evenodd" clip-rule="evenodd" d="M285.129 25.8945C290.2 29.801 295.53 35.1453 291.386 45.1326L271.953 101.919C270.693 105.512 268.429 108.483 263.566 109.842L241.812 118.423L271.346 109.931C276.169 108.184 279.247 105.39 280.966 101.782L302.012 45.2518C305.418 33.2893 297.653 27.0292 285.129 25.8945Z" fill="#646359"/>
<path fill-rule="evenodd" clip-rule="evenodd" d="M12.6042 61.9658L312.002 61.9683C317.824 61.9683 319.326 65.652 318.149 68.7127L305.691 101.117C305.096 102.663 303.835 104.313 302.178 104.313H24.7636C21.691 104.313 20.1185 102.46 19.5392 100.906L7.28152 68.0445C6.05388 64.753 9.02677 61.9658 12.6042 61.9658Z" fill="#FAFAFA" stroke="#2B2A29" stroke-width="5.29172" stroke-miterlimit="22.9256" stroke-linejoin="round"/>
<path d="M53.5836 68.6719V72.7394H49.8084L58.113 93.3101H61.0122V97.3849H48.7816V93.3101H51.6663L50.3623 90.0718H42.786L41.4821 93.3101H44.3668V97.3849H33.7168V93.3101H36.6015L44.9423 72.7394H40.7608V68.6719H53.5835H53.5836ZM48.6794 85.997L46.5886 80.7579L44.4546 85.997H48.6794ZM83.6599 68.6719V72.7394H56.155V68.6719H83.6599ZM80.7097 92.6336C80.7097 95.7987 79.0345 97.3848 75.6764 97.3848H68.1657C66.4539 97.3848 65.1427 96.948 64.2248 96.0823C63.3069 95.2166 62.8479 94.0666 62.8479 92.6336V79.3898H60.801V75.7663H69.0179V93.2518C69.0179 94.0305 69.4258 94.4234 70.2347 94.4234H73.4106C74.1684 94.4234 74.5468 94.0376 74.5468 93.2734V79.3898H72.4927V75.7662H80.7096V92.6335L80.7097 92.6336ZM102.761 68.6719V72.7394H94.332V68.6719H102.761ZM100.495 79.3899H91.7463L91.7679 92.1824C91.7679 92.9533 92.1685 93.3319 92.9625 93.3319H93.2831C93.9826 93.3319 94.332 92.9317 94.332 92.1169V89.963H100.495V92.9754C100.495 94.3357 100.014 95.413 99.0453 96.1989C98.0763 96.9919 96.7651 97.3849 95.0971 97.3849H90.7262C87.3097 97.3849 85.5979 95.7987 85.5979 92.6336V79.3899H83.551V75.7663H85.5395V68.6719H91.7679V75.7663H100.495V79.3899ZM122.8 68.6719V72.7394H102.352V68.6719H122.8ZM120.214 80.5254V92.9755C120.214 94.3358 119.726 95.413 118.743 96.1989C117.759 96.992 116.448 97.3849 114.795 97.3849H107.517C105.827 97.3849 104.53 96.9337 103.635 96.0385C102.782 95.2166 102.352 94.0816 102.352 92.6336V80.2268C102.352 78.7278 102.906 77.5856 104.02 76.7925C104.968 76.1082 106.177 75.7663 107.648 75.7663H115.049C118.495 75.7663 120.214 77.3525 120.214 80.5254L120.214 80.5254ZM114.029 93.208V80.0087C114.029 79.1718 113.687 78.75 113.002 78.75L109.651 78.7716C108.908 78.7716 108.544 79.2011 108.544 80.0525V93.2518C108.544 94.0305 108.937 94.4234 109.739 94.4234H112.915C113.658 94.4234 114.029 94.016 114.029 93.208L114.029 93.208ZM142.753 68.6719V72.7394H122.48V68.6719H142.753ZM140.32 82.7376H134.171V79.9648C134.171 79.1429 133.815 78.7277 133.086 78.7277H129.867C129.065 78.7277 128.671 79.1207 128.671 79.9065V81.9079C128.671 82.934 129.182 83.5595 130.209 83.7854L136.692 85.255C139.11 85.7934 140.32 87.2413 140.32 89.6061V92.6336C140.32 95.7987 138.52 97.3848 134.922 97.3848H127.921C126.217 97.3848 124.884 96.9847 123.922 96.1916C122.96 95.3986 122.48 94.3069 122.48 92.9317V90.4358H128.671V93.1209C128.671 93.9578 129.029 94.3796 129.757 94.3796H132.962C133.756 94.3796 134.157 93.9867 134.157 93.208V91.6074C134.157 90.3266 133.661 89.5773 132.678 89.3514L125.765 87.7725C123.573 87.2708 122.48 85.8589 122.48 83.5307V80.5254C122.48 79.0702 122.91 77.9275 123.762 77.0906C124.672 76.2104 125.976 75.7663 127.666 75.7663H134.922C136.59 75.7663 137.901 76.1593 138.87 76.9379C139.839 77.7238 140.32 78.8009 140.32 80.1835V82.7376H140.32ZM176.917 97.3849H168.788V87.576C168.788 86.1719 168.045 85.4659 166.566 85.4659L162.574 85.4442V93.3101H166.762V97.3849H152.033V93.3101H156.215V72.7394H152.033V68.6719H169.852C173.297 68.6719 175.016 70.2508 175.016 73.4232V79.6086C175.016 82.49 174.091 84.0835 172.241 84.382V84.5058C174.105 84.5058 175.038 85.6263 175.038 87.8529V93.3101H176.917V97.3849ZM168.679 78.9464V73.9766C168.679 73.1541 168.27 72.7395 167.44 72.7395H162.574V81.3329H166.631C167.994 81.3329 168.679 80.5399 168.679 78.9464ZM198.582 68.6719V72.7395H178.003V68.6719H198.582ZM196.229 97.3849H182.702C181.208 97.3849 180.035 96.9265 179.183 96.0169C178.396 95.1949 178.003 94.1543 178.003 92.8879V88.1948C178.003 85.7063 179.525 84.4692 182.571 84.4692L188.463 84.4908V79.8195C188.463 79.1208 188.165 78.7717 187.568 78.7717H185.222C184.537 78.7717 184.195 79.0919 184.195 79.7323V82.7376H178.003V80.0304C178.003 77.1927 179.759 75.7664 183.255 75.7664H189.979C193.082 75.7664 194.633 77.2294 194.633 80.1614V93.3102H196.229V97.3849H196.229ZM188.463 94.4235V86.8556H185.39C184.595 86.8556 184.195 87.2125 184.195 87.9185V93.1426C184.195 93.994 184.617 94.4235 185.455 94.4235H188.463ZM206.223 68.672V72.7395H198.283V68.672H206.223ZM217.937 97.385H203.448C201.758 97.385 200.461 96.9338 199.566 96.0386C198.713 95.2167 198.283 94.0817 198.283 92.6337V80.2269C198.283 78.7278 198.837 77.5857 199.951 76.7926C200.898 76.1083 202.107 75.7664 203.579 75.7664H209.975V72.7395H208.205V68.6719H216.145V93.3102H217.937V97.3849L217.937 97.385ZM210.638 80.0088C210.638 79.1719 210.288 78.7501 209.596 78.7501L206.245 78.7717C205.502 78.7717 205.13 79.2013 205.13 80.0526V93.2519C205.13 94.0306 205.531 94.4235 206.326 94.4235H209.509C210.266 94.4235 210.638 94.0378 210.638 93.2736V80.0088V80.0088ZM239.944 68.672V72.7395H219.649V68.672H239.944ZM237.511 88.2604H225.841V93.252C225.841 94.0307 226.234 94.4236 227.036 94.4236H230.212C230.955 94.4236 231.326 94.0162 231.326 93.2082V90.3049H237.511V92.9755C237.511 94.3358 237.023 95.4131 236.039 96.199C235.056 96.992 233.745 97.385 232.091 97.385H224.814C223.124 97.385 221.827 96.9338 220.931 96.0386C220.079 95.2167 219.649 94.0817 219.649 92.6337V80.2269C219.649 78.7278 220.202 77.5857 221.317 76.7926C222.264 76.1083 223.473 75.7664 224.945 75.7664H232.346C235.792 75.7664 237.511 77.2948 237.511 80.3506V88.2603V88.2604ZM231.326 85.8079V80.0088C231.326 79.1719 230.984 78.7501 230.299 78.7501L226.948 78.7717C226.205 78.7717 225.841 79.2013 225.841 80.0526V85.8079H231.326H231.326ZM271.675 68.672V72.7395H239.623V68.672H271.675ZM268.907 97.385H262.65V80.5255C262.65 80.2413 262.628 80.0599 262.584 79.9794C262.54 79.8995 262.453 79.8633 262.308 79.8633C261.914 79.8633 261.171 80.3218 260.093 81.2458C259.306 81.9151 258.694 82.6067 258.257 83.3121L258.279 97.385H252.022V80.5255C252.022 80.2413 252 80.0599 251.956 79.9794C251.919 79.8995 251.825 79.8633 251.679 79.8633C251.286 79.8633 250.542 80.3218 249.465 81.2458C248.678 81.9151 248.073 82.6067 247.651 83.3121V93.3102H249.632V97.385H239.623V93.3102H241.67V79.39H239.623V75.7664H247.651V78.8372C248.277 78.1678 249.173 77.5274 250.339 76.9019C251.788 76.1304 253.129 75.7448 254.352 75.7448C256.669 75.7448 257.973 76.7781 258.257 78.8371C258.898 78.1678 259.794 77.5273 260.945 76.9018C262.409 76.1304 263.757 75.7447 264.973 75.7447C266.183 75.7447 267.144 76.0721 267.851 76.7198C268.55 77.3675 268.907 78.2261 268.907 79.3099V97.3849L268.907 97.385ZM291.803 68.672V72.7395H271.224V68.672H291.803ZM289.45 97.385H275.923C274.429 97.385 273.256 96.9266 272.404 96.0169C271.617 95.195 271.224 94.1544 271.224 92.8879V88.1949C271.224 85.7063 272.746 84.4693 275.792 84.4693L281.684 84.4909V79.8196C281.684 79.1208 281.386 78.7717 280.789 78.7717H278.443C277.759 78.7717 277.416 79.092 277.416 79.7324V82.7377H271.224V80.0304C271.224 77.1928 272.98 75.7664 276.476 75.7664H283.2C286.303 75.7664 287.854 77.2294 287.854 80.1614V93.3102H289.45V97.385H289.45ZM281.684 94.4236V86.8557H278.611C277.816 86.8557 277.416 87.2126 277.416 87.9185V93.1427C277.416 93.9941 277.838 94.4236 278.676 94.4236H281.684Z" fill="#2B2A29"/>
<path fill-rule="evenodd" clip-rule="evenodd" d="M144.402 34.8811L140.669 39.3953L223.431 39.4009L228.867 36.4656C201.113 30.4292 167.035 18.4351 144.402 34.8811H144.402Z" fill="url(#paint0_linear_318_2)" fill-opacity="0.4"/>
<path fill-rule="evenodd" clip-rule="evenodd" d="M56.03 57.5536L95.0932 55.4969L109.594 50.6037L93.0016 48.3291C81.3022 47.983 65.2116 52.0682 56.03 57.5535V57.5536Z" fill="url(#paint1_linear_318_2)" fill-opacity="0.4" stroke="#2B2A29" stroke-width="0.199972" stroke-miterlimit="22.9256"/>
<path fill-rule="evenodd" clip-rule="evenodd" d="M68.7225 47.4342C77.1395 44.9098 86.0491 43.2868 95.2541 42.2047C105.71 41.0598 114.722 41.2667 123.335 41.5669C137.618 31.4455 152.25 24.0399 167.288 19.8016C181.616 17.0598 205.81 21.9394 224.456 26.4138C241.877 30.594 253.456 29.8652 270.663 28.2809C268.048 32.75 264.89 36.7317 260.764 39.8425C265.588 44.4222 268.385 48.9069 270.942 53.3354C264.758 49.4555 258.917 46.6118 251.977 45.7502C241.96 44.4295 231.526 45.2268 220.815 47.3753C203.293 50.7512 191.621 51.8568 183.691 50.9018C205.461 48.7806 223.224 43.5165 236.323 35.883L191.859 26.6763C184.217 25.5978 177.664 25.2185 171.735 25.2799C167.69 25.3029 163.589 25.8712 159.429 27.0354C148.191 30.1712 139.893 35.717 130.253 41.6463L141.143 42.103L143.02 40.5356C140.429 39.2935 141.169 37.6011 144.845 35.5112L149.475 33.7125C155.342 32.4695 157.905 35.2023 154.927 39.5503C154.693 40.2146 151.491 40.5904 146.556 40.7979L144.524 42.4995C165.497 44.166 185.01 43.9124 204.02 43.0126C200.732 45.686 190.002 47.0734 168.199 47.6482C150.627 47.9043 132.793 46.9796 114.822 45.4398L122.068 50.3854C117.084 48.5846 112.047 47.995 106.884 47.4528C100.042 46.7344 93.0151 46.47 85.9625 47.2237C76.3327 47.8113 65.6051 51.0737 53.7422 57.2999C55.9568 54.1745 59.8063 50.9535 68.7225 47.4342Z" fill="#C8C6C5"/>
</g>
<defs>
<filter id="filter0_d_318_2" x="0.353027" y="0" width="324.813" height="158" filterUnits="userSpaceOnUse" color-interpolation-filters="sRGB">
<feFlood flood-opacity="0" result="BackgroundImageFix"/>
<feColorMatrix in="SourceAlpha" type="matrix" values="0 0 0 0 0 0 0 0 0 0 0 0 0 0 0 0 0 0 127 0" result="hardAlpha"/>
<feOffset dy="2"/>
<feGaussianBlur stdDeviation="2"/>
<feComposite in2="hardAlpha" operator="out"/>
<feColorMatrix type="matrix" values="0 0 0 0 0 0 0 0 0 0 0 0 0 0 0 0 0 0 0.54 0"/>
<feBlend mode="normal" in2="BackgroundImageFix" result="effect1_dropShadow_318_2"/>
<feBlend mode="normal" in="SourceGraphic" in2="effect1_dropShadow_318_2" result="shape"/>
</filter>
<linearGradient id="paint0_linear_318_2" x1="184.768" y1="26.5635" x2="184.768" y2="39.4009" gradientUnits="userSpaceOnUse">
<stop stop-color="#C8C6C5"/>
<stop offset="1" stop-color="#C8C6C5" stop-opacity="0"/>
</linearGradient>
<linearGradient id="paint1_linear_318_2" x1="82.8122" y1="48.3086" x2="83.4748" y2="54.5238" gradientUnits="userSpaceOnUse">
<stop stop-color="#C8C6C5"/>
<stop offset="1" stop-color="#C8C6C5" stop-opacity="0"/>
</linearGradient>
</defs>
</svg>
