<?xml version="1.0" encoding="UTF-8"?>
<!DOCTYPE svg PUBLIC "-//W3C//DTD SVG 1.0//EN" "http://www.w3.org/TR/2001/REC-SVG-20010904/DTD/svg10.dtd">
<!-- Creator: CorelDRAW 2021 (64-Bit) -->
<svg xmlns="http://www.w3.org/2000/svg" xml:space="preserve" width="10mm" height="4.6144mm" version="1.0" style="shape-rendering:geometricPrecision; text-rendering:geometricPrecision; image-rendering:optimizeQuality; fill-rule:evenodd; clip-rule:evenodd"
viewBox="0 0 35.45 16.36"
 xmlns:xlink="http://www.w3.org/1999/xlink"
 xmlns:xodm="http://www.corel.com/coreldraw/odm/2003">
 <defs>
  <style type="text/css">
   <![CDATA[
    .fil0 {fill:black;fill-rule:nonzero}
   ]]>
  </style>
 </defs>
 <g id="Capa_x0020_1">
  <metadata id="CorelCorpID_0Corel-Layer"/>
  <path class="fil0" d="M34.42 1.39c-0.78,-0.88 -1.89,-1.39 -3.07,-1.39l-11.2 0c-2.75,0 -5.35,1.05 -7.33,2.97l-12.63 12.24c-0.19,0.19 -0.26,0.48 -0.15,0.73 0.1,0.25 0.35,0.42 0.62,0.42l32.66 0c0.34,0 0.62,-0.25 0.66,-0.58l1.42 -11.17c0.15,-1.16 -0.21,-2.34 -0.99,-3.22zm-29.35 13.64l4.39 -4.26 0 4.26 -4.39 0zm5.73 0l0 -5.55 4.3 -4.16c1.36,-1.32 3.16,-2.05 5.06,-2.05l4.81 0 0 5.44c0,0.23 0.12,0.44 0.31,0.56 0.19,0.12 0.43,0.14 0.64,0.04 1.2,-0.56 2.56,-0.64 3.82,-0.24l1.75 0.56 -0.69 5.39 -20 0zm21.38 -10.83l-0.45 3.58 -4.51 -4.51 4.14 0c0.24,0 0.46,0.1 0.62,0.28 0.16,0.18 0.23,0.41 0.2,0.65zm-5.88 0.04l3.45 3.45c-1.14,-0.29 -2.33,-0.27 -3.45,0.06l0 -3.51zm7.79 0.2l-1.34 10.59 -0.59 0 1.35 -10.66c0.08,-0.62 -0.11,-1.24 -0.52,-1.7 -0.41,-0.47 -1,-0.73 -1.62,-0.73l-11.2 0c-2.25,0 -4.37,0.86 -5.99,2.43l-11.01 10.67 -0.84 0 11.45 -11.1c1.72,-1.67 4,-2.59 6.4,-2.59l11.2 0c0.79,0 1.54,0.34 2.07,0.93 0.52,0.59 0.77,1.38 0.67,2.17z"/>
 </g>
</svg>
