<?xml version="1.0" encoding="UTF-8"?>
<!DOCTYPE svg PUBLIC "-//W3C//DTD SVG 1.0//EN" "http://www.w3.org/TR/2001/REC-SVG-20010904/DTD/svg10.dtd">
<!-- Creator: CorelDRAW 2021 (64-Bit) -->
<svg xmlns="http://www.w3.org/2000/svg" xml:space="preserve" width="10mm" height="4.2324mm" version="1.0" style="shape-rendering:geometricPrecision; text-rendering:geometricPrecision; image-rendering:optimizeQuality; fill-rule:evenodd; clip-rule:evenodd"
viewBox="0 0 35.45 15"
 xmlns:xlink="http://www.w3.org/1999/xlink"
 xmlns:xodm="http://www.corel.com/coreldraw/odm/2003">
 <defs>
  <style type="text/css">
   <![CDATA[
    .fil0 {fill:#010101}
   ]]>
  </style>
 </defs>
 <g id="Capa_x0020_1">
  <metadata id="CorelCorpID_0Corel-Layer"/>
  <g id="_2304763661536">
   <path class="fil0" d="M-0 13.68c0,0.74 0.51,1.32 1.18,1.32l33.17 0c0.56,0 1.1,-0.62 1.1,-1.32 0,-0.52 -1.9,-5.45 -2.11,-5.98 -0.38,-0.96 -0.79,-1.89 -1.25,-2.8 -0.48,-0.96 -0.93,-1.78 -1.5,-2.62l-1.32 1.25c0.11,0.21 0.18,0.3 0.31,0.5 0.13,0.2 0.18,0.36 0.31,0.57 0.93,1.55 3.14,7.08 3.5,8.64l-31.33 0c0.16,-0.68 0.78,-2.29 1.04,-3.01 0.83,-2.3 2.04,-5.29 3.56,-7.25 0.11,-0.14 0.1,-0.15 0.23,-0.28 0.16,-0.16 0.4,-0.35 0.68,-0.35l15.08 0c0,-0.7 -0.17,-1.15 -0.22,-1.76l-13.24 0c-0.71,0 -1.51,-0.04 -2.21,-0 -1.52,0.07 -3.4,3.71 -3.93,4.97 -0.73,1.76 -1.16,2.65 -1.94,4.75 -0.13,0.35 -1.11,3.04 -1.11,3.37z"/>
   <path class="fil0" d="M19.56 6.77c0.96,0 1.61,-0.15 2.57,-0.15l-0.66 2.35c0.28,-0.02 0.4,-0.13 0.64,-0.25l1.86 -0.86c-0.04,0.44 -1.31,4.75 -1.32,5.22l2.94 -4.71c0.32,0.09 0.12,0.03 0.53,0.65l0.5 0.75c0.14,-0.59 0.23,-1.25 0.37,-1.84 0.19,0.13 0.28,0.17 0.46,0.35l2.68 2.4c0.19,0.16 0.26,0.28 0.46,0.42 -0.08,-0.33 -1.36,-2.53 -1.59,-2.97 -0.1,-0.19 -0.16,-0.33 -0.24,-0.49 -0.1,-0.2 -0.19,-0.32 -0.3,-0.51 0.22,-0.05 0.7,-0.14 0.96,-0.15l0 -0.15c-0.24,-0.06 -1.44,-1.1 -1.54,-1.25 0.36,-0.19 1.42,-0.62 1.62,-0.88 -0.48,0 -0.66,0.08 -1.18,0.07 -0.42,-0 -0.83,-0 -1.25,-0l4.04 -3.75c-0.27,0.06 -0.43,0.18 -0.65,0.31l-4.57 2.41c-0.06,-0.26 -0.25,-0.59 -0.37,-0.81 -0.32,0.22 -0.57,0.71 -0.96,0.81 -0.11,-0.46 -0.56,-1.35 -0.78,-1.87 -0.15,-0.35 -0.26,-0.6 -0.4,-0.92l-0.41 -0.91c-0.01,-0.01 -0.02,-0.03 -0.03,-0.05 0,0.87 0.5,3.15 0.59,4.19 -0.37,0 -0.36,-0.07 -0.73,-0.08 -0.26,-0.01 -0.55,0.02 -0.81,0l-1.54 -0.07 2.13 1.1c-0.16,0.22 -1.18,0.66 -1.47,0.81l-1.54 0.81z"/>
   <path class="fil0" d="M24.49 2.35c2.59,0 2.59,0.37 4.1,-0.54 0.31,-0.18 0.82,-0.4 0.98,-0.64 -0.53,-0.8 -1.8,-0.59 -2.57,-0.59 -1.08,0 -2.16,0 -3.24,0 0.13,0.25 0.71,1.5 0.74,1.76z"/>
   <polygon class="fil0" points="19.56,6.77 19.49,6.77 19.55,6.85 "/>
  </g>
 </g>
</svg>
